HIERARCHY
ROOT Hips
{
  OFFSET 5.72205e-005 65.662 3.42586
  CHANNELS 6 Xposition Yposition Zposition Zrotation Xrotation Yrotation
  JOINT Chest
  {
    OFFSET 0 8.7983 -4.7612
    CHANNELS 6 Xposition Yposition Zposition Zrotation Xrotation Yrotation
    JOINT Chest2
    {
      OFFSET 0 8.0291 0.4195
      CHANNELS 6 Xposition Yposition Zposition Zrotation Xrotation Yrotation
      JOINT Chest3
      {
        OFFSET 0 9.9351 -2.2114
        CHANNELS 6 Xposition Yposition Zposition Zrotation Xrotation Yrotation
        JOINT Neck
        {
          OFFSET 0 22.3885 -0.4656
          CHANNELS 6 Xposition Yposition Zposition Zrotation Xrotation Yrotation
          JOINT Head
          {
            OFFSET -0.0001 12.643 3.4389
            CHANNELS 6 Xposition Yposition Zposition Zrotation Xrotation Yrotation
            End Site
            {
              OFFSET 0.0001 17.6655 0.5274
            }
          }
        }
        JOINT LeftCollar
        {
          OFFSET 2.2603 21.606 7.4023
          CHANNELS 6 Xposition Yposition Zposition Zrotation Xrotation Yrotation
          JOINT LeftShoulder
          {
            OFFSET 13.5163 -1.1332 -5.0146
            CHANNELS 6 Xposition Yposition Zposition Zrotation Xrotation Yrotation
            JOINT LeftElbow
            {
              OFFSET -0.0995 -28.05 -0.2431
              CHANNELS 6 Xposition Yposition Zposition Zrotation Xrotation Yrotation
              JOINT LeftWrist
              {
                OFFSET 0.0679 -23.3996 -0.1402
                CHANNELS 6 Xposition Yposition Zposition Zrotation Xrotation Yrotation
                JOINT LeftFinger1
                {
                  OFFSET 0.7932 -9.069 2.5189
                  CHANNELS 6 Xposition Yposition Zposition Zrotation Xrotation Yrotation
                  JOINT LeftFinger11
                  {
                    OFFSET -0.8272 -3.3923 0.5977
                    CHANNELS 6 Xposition Yposition Zposition Zrotation Xrotation Yrotation
                    JOINT LeftFinger12
                    {
                      OFFSET -0.5649 -2.3158 0.4082
                      CHANNELS 6 Xposition Yposition Zposition Zrotation Xrotation Yrotation
                      End Site
                      {
                        OFFSET -0.4919 -1.6479 0.2673
                      }
                    }
                  }
                }
                JOINT LeftFinger2
                {
                  OFFSET 0.9159 -9.2044 0.2193
                  CHANNELS 6 Xposition Yposition Zposition Zrotation Xrotation Yrotation
                  JOINT LeftFinger21
                  {
                    OFFSET 0.0117 -4.1944 -0.0248
                    CHANNELS 6 Xposition Yposition Zposition Zrotation Xrotation Yrotation
                    JOINT LeftFinger22
                    {
                      OFFSET 0.0071 -2.3249 -0.0142
                      CHANNELS 6 Xposition Yposition Zposition Zrotation Xrotation Yrotation
                      End Site
                      {
                        OFFSET -0.1475 -2.0882 0.0028
                      }
                    }
                  }
                }
                JOINT LeftFinger3
                {
                  OFFSET 0.6113 -8.7231 -2.0637
                  CHANNELS 6 Xposition Yposition Zposition Zrotation Xrotation Yrotation
                  JOINT LeftFinger31
                  {
                    OFFSET -0.1927 -3.8059 -0.2383
                    CHANNELS 6 Xposition Yposition Zposition Zrotation Xrotation Yrotation
                    JOINT LeftFinger32
                    {
                      OFFSET -0.1091 -2.1688 -0.1362
                      CHANNELS 6 Xposition Yposition Zposition Zrotation Xrotation Yrotation
                      End Site
                      {
                        OFFSET -0.2358 -1.9176 -0.0906
                      }
                    }
                  }
                }
                JOINT LeftFinger4
                {
                  OFFSET -0.6151 -8.0947 -3.5641
                  CHANNELS 6 Xposition Yposition Zposition Zrotation Xrotation Yrotation
                  JOINT LeftFinger41
                  {
                    OFFSET -0.4882 -2.341 -0.6462
                    CHANNELS 6 Xposition Yposition Zposition Zrotation Xrotation Yrotation
                    JOINT LeftFinger42
                    {
                      OFFSET -0.3575 -1.7167 -0.4742
                      CHANNELS 6 Xposition Yposition Zposition Zrotation Xrotation Yrotation
                      End Site
                      {
                        OFFSET -0.4187 -1.5237 -0.3496
                      }
                    }
                  }
                }
                JOINT LeftFinger0
                {
                  OFFSET -1.42 -1.8761 1.4223
                  CHANNELS 6 Xposition Yposition Zposition Zrotation Xrotation Yrotation
                  JOINT LeftFinger01
                  {
                    OFFSET -1.1471 -3.4929 2.6334
                    CHANNELS 6 Xposition Yposition Zposition Zrotation Xrotation Yrotation
                    JOINT LeftFinger02
                    {
                      OFFSET -0.823 -2.3 1.6571
                      CHANNELS 6 Xposition Yposition Zposition Zrotation Xrotation Yrotation
                      End Site
                      {
                        OFFSET -0.5822 -1.6914 1.1582
                      }
                    }
                  }
                }
              }
            }
          }
        }
        JOINT RightCollar
        {
          OFFSET -2.2603 21.606 7.4023
          CHANNELS 6 Xposition Yposition Zposition Zrotation Xrotation Yrotation
          JOINT RightShoulder
          {
            OFFSET -13.5187 -1.1334 -5.0155
            CHANNELS 6 Xposition Yposition Zposition Zrotation Xrotation Yrotation
            JOINT RightElbow
            {
              OFFSET 0.0994 -28.0499 -0.2431
              CHANNELS 6 Xposition Yposition Zposition Zrotation Xrotation Yrotation
              JOINT RightWrist
              {
                OFFSET -0.0679 -23.3996 -0.1402
                CHANNELS 6 Xposition Yposition Zposition Zrotation Xrotation Yrotation
                JOINT RightFinger1
                {
                  OFFSET -0.7932 -9.0691 2.5189
                  CHANNELS 6 Xposition Yposition Zposition Zrotation Xrotation Yrotation
                  JOINT RightFinger11
                  {
                    OFFSET 0.8272 -3.3923 0.5977
                    CHANNELS 6 Xposition Yposition Zposition Zrotation Xrotation Yrotation
                    JOINT RightFinger12
                    {
                      OFFSET 0.565 -2.3158 0.4082
                      CHANNELS 6 Xposition Yposition Zposition Zrotation Xrotation Yrotation
                      End Site
                      {
                        OFFSET 0.4919 -1.6479 0.2673
                      }
                    }
                  }
                }
                JOINT RightFinger2
                {
                  OFFSET -0.916 -9.2044 0.2193
                  CHANNELS 6 Xposition Yposition Zposition Zrotation Xrotation Yrotation
                  JOINT RightFinger21
                  {
                    OFFSET -0.0117 -4.1944 -0.0248
                    CHANNELS 6 Xposition Yposition Zposition Zrotation Xrotation Yrotation
                    JOINT RightFinger22
                    {
                      OFFSET -0.0071 -2.3249 -0.0142
                      CHANNELS 6 Xposition Yposition Zposition Zrotation Xrotation Yrotation
                      End Site
                      {
                        OFFSET 0.1475 -2.0882 0.0028
                      }
                    }
                  }
                }
                JOINT RightFinger3
                {
                  OFFSET -0.6113 -8.7231 -2.0637
                  CHANNELS 6 Xposition Yposition Zposition Zrotation Xrotation Yrotation
                  JOINT RightFinger31
                  {
                    OFFSET 0.1927 -3.8059 -0.2383
                    CHANNELS 6 Xposition Yposition Zposition Zrotation Xrotation Yrotation
                    JOINT RightFinger32
                    {
                      OFFSET 0.1091 -2.1688 -0.1362
                      CHANNELS 6 Xposition Yposition Zposition Zrotation Xrotation Yrotation
                      End Site
                      {
                        OFFSET 0.2358 -1.9176 -0.0906
                      }
                    }
                  }
                }
                JOINT RightFinger4
                {
                  OFFSET 0.6151 -8.0947 -3.564
                  CHANNELS 6 Xposition Yposition Zposition Zrotation Xrotation Yrotation
                  JOINT RightFinger41
                  {
                    OFFSET 0.4882 -2.341 -0.6462
                    CHANNELS 6 Xposition Yposition Zposition Zrotation Xrotation Yrotation
                    JOINT RightFinger42
                    {
                      OFFSET 0.3574 -1.7166 -0.4742
                      CHANNELS 6 Xposition Yposition Zposition Zrotation Xrotation Yrotation
                      End Site
                      {
                        OFFSET 0.4187 -1.5237 -0.3496
                      }
                    }
                  }
                }
                JOINT RightFinger0
                {
                  OFFSET 1.4199 -1.8761 1.4221
                  CHANNELS 6 Xposition Yposition Zposition Zrotation Xrotation Yrotation
                  JOINT RightFinger01
                  {
                    OFFSET 1.1472 -3.4929 2.6336
                    CHANNELS 6 Xposition Yposition Zposition Zrotation Xrotation Yrotation
                    JOINT RightFinger02
                    {
                      OFFSET 0.8229 -2.3 1.6571
                      CHANNELS 6 Xposition Yposition Zposition Zrotation Xrotation Yrotation
                      End Site
                      {
                        OFFSET 0.5822 -1.6914 1.1582
                      }
                    }
                  }
                }
              }
            }
          }
        }
      }
    }
  }
  JOINT RightHip
  {
    OFFSET -9.412 3.9771 -0.7758
    CHANNELS 6 Xposition Yposition Zposition Zrotation Xrotation Yrotation
    JOINT RightKnee
    {
      OFFSET -0.7531 -40.938 0
      CHANNELS 6 Xposition Yposition Zposition Zrotation Xrotation Yrotation
      JOINT RightAnkle
      {
        OFFSET 0 -40.1986 0
        CHANNELS 6 Xposition Yposition Zposition Zrotation Xrotation Yrotation
        JOINT RightToe
        {
          OFFSET 0 -4.4182 9.239
          CHANNELS 6 Xposition Yposition Zposition Zrotation Xrotation Yrotation
          End Site
          {
            OFFSET 0 0 6.1981
          }
        }
      }
    }
  }
  JOINT LeftHip
  {
    OFFSET 9.4119 3.9773 -0.7758
    CHANNELS 6 Xposition Yposition Zposition Zrotation Xrotation Yrotation
    JOINT LeftKnee
    {
      OFFSET 0.7532 -40.9383 0
      CHANNELS 6 Xposition Yposition Zposition Zrotation Xrotation Yrotation
      JOINT LeftAnkle
      {
        OFFSET 0 -40.1986 0
        CHANNELS 6 Xposition Yposition Zposition Zrotation Xrotation Yrotation
        JOINT LeftToe
        {
          OFFSET 0 -4.4182 9.239
          CHANNELS 6 Xposition Yposition Zposition Zrotation Xrotation Yrotation
          End Site
          {
            OFFSET 0 0 6.1981
          }
        }
      }
    }
  }
}
MOTION
Frames:	4
Frame Time:	0.0333333
3.94952e-005 2.77084 -13.6723 -1.94757e-006 3.99973 -1.30563e-006 -6.77627e-021 8.7983 -4.7612 -3.08506 17.7437 3.5267 -2.22045e-016 8.0291 0.4195 -7.99336 35.2084 8.78674 -4.44089e-016 9.9351 -2.2114 -7.99327 35.2082 8.78665 -8.88179e-016 22.3885 -0.4656 -0.00422971 -46.0053 16.8992 -0.0001 12.643 3.4389 -0.000402887 18.289 -31.003 2.2603 21.606 7.4023 2.30822 -5.32586 -21.3523 13.5163 -1.1332 -5.0146 -176.707 -36.0017 53.4493 -0.0995 -28.05 -0.2431 -1.49205 -8.10923 -0.367017 0.0679 -23.3996 -0.1402 0.181529 -0.248 49.0268 0.7932 -9.069 2.5189 6.36111e-015 -3.18055e-015 -3.97569e-015 -0.8272 -3.3923 0.5977 9.54166e-015 0 -5.56597e-015 -0.5649 -2.3158 0.4082 -2.78156e-006 1.50883e-006 -7.30774e-007 0.9159 -9.2044 0.2193 6.36111e-015 -3.18055e-015 -3.97569e-015 0.0117 -4.1944 -0.0248 -0.0128689 0.00231447 7.57241e-005 0.0071 -2.3249 -0.0142 -2.41283e-006 9.74093e-007 -1.03615e-006 0.6113 -8.7231 -2.0637 6.36111e-015 -3.18055e-015 -3.97569e-015 -0.1927 -3.8059 -0.2383 -0.016007 0.00297838 0.000854454 -0.1091 -2.1688 -0.1362 -6.36111e-015 7.25102e-007 -1.59028e-015 -0.6151 -8.0947 -3.5641 6.36111e-015 -3.18055e-015 -3.97569e-015 -0.4882 -2.341 -0.6462 -0.012598 0.00311747 0.00282844 -0.3575 -1.7167 -0.4742 9.54166e-015 3.18055e-015 3.18055e-015 -1.42 -1.8761 1.4223 6.36111e-015 -3.18055e-015 -3.97569e-015 -1.1471 -3.4929 2.6334 9.54166e-015 0 -5.56597e-015 -0.823 -2.3 1.6571 -2.78156e-006 1.50883e-006 -7.30774e-007 -2.2603 21.606 7.4023 -0.87836 -9.83698 6.88567 -13.5187 -1.1334 -5.0155 -171.568 -55.5748 -146.621 0.0994 -28.0499 -0.2431 6.78646 -14.8036 21.9702 -0.0679 -23.3996 -0.1402 -10.7513 -6.81151 29.1975 -0.7932 -9.0691 2.5189 3.18055e-015 -3.18055e-015 -1.59028e-015 0.8272 -3.3923 0.5977 3.18055e-015 0 -0 0.565 -2.3158 0.4082 3.18055e-015 0 -1.59028e-015 -0.916 -9.2044 0.2193 3.18055e-015 -3.18055e-015 -1.59028e-015 -0.0117 -4.1944 -0.0248 0.0129283 0.00231946 -8.59138e-005 -0.0071 -2.3249 -0.0142 -3.18055e-015 -1.59028e-015 4.77083e-015 -0.6113 -8.7231 -2.0637 3.18055e-015 -3.18055e-015 -1.59028e-015 0.1927 -3.8059 -0.2383 0.0163792 0.0030477 -0.000883437 0.1091 -2.1688 -0.1362 9.54166e-015 4.77083e-015 1.59028e-015 0.6151 -8.0947 -3.564 3.18055e-015 -3.18055e-015 -1.59028e-015 0.4882 -2.341 -0.6462 0.014623 0.00368701 -0.00327255 0.3574 -1.7166 -0.4742 6.36111e-015 -1.59028e-015 -0 1.4199 -1.8761 1.4221 3.18055e-015 -3.18055e-015 -1.59028e-015 1.1472 -3.4929 2.6336 3.18055e-015 0 -0 0.8229 -2.3 1.6571 3.18055e-015 0 -1.59028e-015 -9.412 3.9771 -0.7758 -32.3606 -52.942 -7.18437 -0.7531 -40.938 1.77636e-015 179.768 27.7282 174.154 1.77636e-015 -40.1986 3.55271e-015 2.55257 51.1578 -5.19733 0 -4.4182 9.239 -9.3061e-007 -2.84233e-006 -1.92066e-006 9.4119 3.9773 -0.7758 32.3236 -52.9531 7.15357 0.7532 -40.9383 3.55271e-015 -179.749 27.7192 -174.154 0 -40.1986 0 -2.5528 51.1566 5.19762 -1.77636e-015 -4.4182 9.239 1.32216e-005 -6.87027e-006 -7.29427e-006 
3.95649e-005 2.77084 -13.6723 -1.29396e-006 3.99975 4.52014e-007 -6.77627e-021 8.7983 -4.7612 -3.08138 17.7833 3.53514 0 8.0291 0.4195 -7.99532 35.287 8.81034 0 9.9351 -2.2114 -7.99522 35.2868 8.81025 0 22.3885 -0.4656 -0.00430613 -46.0052 16.1676 -0.0001 12.643 3.4389 -0.000503744 17.8146 -31.0029 2.2603 21.606 7.4023 2.41292 -5.15003 -21.7016 13.5163 -1.1332 -5.0146 -176.563 -35.6132 53.5504 -0.0995 -28.05 -0.2431 -1.36314 -7.42516 -0.327403 0.0679 -23.3996 -0.1402 -0.00721515 -0.656981 49.4559 0.7932 -9.069 2.5189 -5.79004e-006 -5.37409e-006 -7.55613e-006 -0.8272 -3.3923 0.5977 7.72434e-031 7.95139e-015 -5.56597e-015 -0.5649 -2.3158 0.4082 3.66382e-006 -1.48266e-006 3.31157e-006 0.9159 -9.2044 0.2193 -5.79004e-006 -5.37409e-006 -7.55613e-006 0.0117 -4.1944 -0.0248 -0.0127975 0.00232616 9.68697e-005 0.0071 -2.3249 -0.0142 1.91143e-006 1.4835e-006 -1.81283e-006 0.6113 -8.7231 -2.0637 -5.79004e-006 -5.37409e-006 -7.55613e-006 -0.1927 -3.8059 -0.2383 -0.0160294 0.00299729 0.000865864 -0.1091 -2.1688 -0.1362 3.77172e-006 -3.83838e-006 6.34047e-006 -0.6151 -8.0947 -3.5641 -5.79004e-006 -5.37409e-006 -7.55613e-006 -0.4882 -2.341 -0.6462 -0.0125497 0.00311328 0.00282532 -0.3575 -1.7167 -0.4742 -1.91145e-006 -1.45845e-006 1.81291e-006 -1.42 -1.8761 1.4223 -5.79004e-006 -5.37409e-006 -7.55613e-006 -1.1471 -3.4929 2.6334 7.72434e-031 7.95139e-015 -5.56597e-015 -0.823 -2.3 1.6571 3.66382e-006 -1.48266e-006 3.31157e-006 -2.2603 21.606 7.4023 -0.878362 -9.837 6.88567 -13.5187 -1.1334 -5.0155 -171.699 -55.2648 -146.732 0.0994 -28.0499 -0.2431 6.78653 -14.8037 21.9701 -0.0679 -23.3996 -0.1402 -10.7513 -6.81155 29.1975 -0.7932 -9.0691 2.5189 -6.36111e-015 1.59028e-015 1.59028e-015 0.8272 -3.3923 0.5977 1.76556e-031 -6.36111e-015 1.59028e-015 0.565 -2.3158 0.4082 -0 -7.95139e-015 -0 -0.916 -9.2044 0.2193 -6.36111e-015 1.59028e-015 1.59028e-015 -0.0117 -4.1944 -0.0248 0.0129732 0.00233025 -9.38614e-005 -0.0071 -2.3249 -0.0142 -3.18055e-015 -6.36111e-015 -4.77083e-015 -0.6113 -8.7231 -2.0637 -6.36111e-015 1.59028e-015 1.59028e-015 0.1927 -3.8059 -0.2383 0.0163391 0.00303719 -0.000875334 0.1091 -2.1688 -0.1362 3.18055e-015 -7.95139e-015 -1.43125e-014 0.6151 -8.0947 -3.564 -6.36111e-015 1.59028e-015 1.59028e-015 0.4882 -2.341 -0.6462 0.0146377 0.00370291 -0.00327752 0.3574 -1.7166 -0.4742 -1.27222e-014 6.36111e-015 3.18055e-015 1.4199 -1.8761 1.4221 -6.36111e-015 1.59028e-015 1.59028e-015 1.1472 -3.4929 2.6336 1.76556e-031 -6.36111e-015 1.59028e-015 0.8229 -2.3 1.6571 -0 -7.95139e-015 -0 -9.412 3.9771 -0.7758 -32.3606 -52.942 -7.18442 -0.7531 -40.938 -5.32907e-015 179.768 27.7282 174.154 -1.77636e-015 -40.1986 0 2.5526 51.1578 -5.19735 0 -4.4182 9.239 3.72244e-007 3.18055e-015 7.68262e-007 9.4119 3.9773 -0.7758 32.3227 -52.9534 7.15286 0.7532 -40.9383 1.77636e-015 -179.748 27.719 -174.154 -1.77636e-015 -40.1986 -3.55271e-015 -2.55283 51.1566 5.19762 0 -4.4182 9.239 1.48875e-006 4.85904e-006 1.24883e-006 
3.96183e-005 2.77084 -13.6723 -9.21478e-007 3.99975 2.46544e-006 0 8.7983 -4.7612 -3.07767 17.823 3.54356 0 8.0291 0.4195 -7.99728 35.3656 8.83394 -4.44089e-016 9.9351 -2.2114 -7.99718 35.3653 8.83384 8.88179e-016 22.3885 -0.4656 -0.00436023 -46.0052 15.4349 -0.0001 12.643 3.4389 -0.000601821 17.3398 -31.0028 2.2603 21.606 7.4023 2.51863 -4.97488 -22.0511 13.5163 -1.1332 -5.0146 -176.42 -35.2247 53.6499 -0.0995 -28.05 -0.2431 -1.23503 -6.74146 -0.289422 0.0679 -23.3996 -0.1402 -0.192848 -1.06708 49.8835 0.7932 -9.069 2.5189 -3.99385e-007 -5.97189e-007 1.60709e-007 -0.8272 -3.3923 0.5977 3.18055e-015 -4.77083e-015 -3.97569e-015 -0.5649 -2.3158 0.4082 6.36111e-015 -4.77083e-015 -3.18055e-015 0.9159 -9.2044 0.2193 -3.99385e-007 -5.97189e-007 1.60709e-007 0.0117 -4.1944 -0.0248 -0.0128483 0.00231003 7.04056e-005 0.0071 -2.3249 -0.0142 6.36111e-015 6.36111e-015 4.77083e-015 0.6113 -8.7231 -2.0637 -3.99385e-007 -5.97189e-007 1.60709e-007 -0.1927 -3.8059 -0.2383 -0.0160203 0.00298443 0.000842155 -0.1091 -2.1688 -0.1362 -6.36111e-015 -4.77083e-015 4.77083e-015 -0.6151 -8.0947 -3.5641 -3.99385e-007 -5.97189e-007 1.60709e-007 -0.4882 -2.341 -0.6462 -0.0125845 0.00311438 0.00282398 -0.3575 -1.7167 -0.4742 -3.18055e-015 -6.36111e-015 6.36111e-015 -1.42 -1.8761 1.4223 -3.99385e-007 -5.97189e-007 1.60709e-007 -1.1471 -3.4929 2.6334 3.18055e-015 -4.77083e-015 -3.97569e-015 -0.823 -2.3 1.6571 6.36111e-015 -4.77083e-015 -3.18055e-015 -2.2603 21.606 7.4023 -0.878359 -9.83699 6.88567 -13.5187 -1.1334 -5.0155 -171.827 -54.9546 -146.841 0.0994 -28.0499 -0.2431 6.7866 -14.8038 21.9701 -0.0679 -23.3996 -0.1402 -10.7513 -6.81151 29.1974 -0.7932 -9.0691 2.5189 -4.11789e-006 2.26057e-006 2.37296e-006 0.8272 -3.3923 0.5977 -8.82781e-032 -3.18055e-015 -1.59028e-015 0.565 -2.3158 0.4082 -0 -4.77083e-015 -0 -0.916 -9.2044 0.2193 -4.11789e-006 2.26057e-006 2.37296e-006 -0.0117 -4.1944 -0.0248 0.0129777 0.00231613 -8.59313e-005 -0.0071 -2.3249 -0.0142 0 0 -1.59028e-015 -0.6113 -8.7231 -2.0637 -4.11789e-006 2.26057e-006 2.37296e-006 0.1927 -3.8059 -0.2383 0.0163295 0.00303352 -0.000874235 0.1091 -2.1688 -0.1362 8.75271e-007 1.72574e-006 -6.29966e-006 0.6151 -8.0947 -3.564 -4.11789e-006 2.26057e-006 2.37296e-006 0.4882 -2.341 -0.6462 0.014629 0.00369125 -0.00327202 0.3574 -1.7166 -0.4742 -3.18055e-015 -1.59028e-015 -1.59028e-015 1.4199 -1.8761 1.4221 -4.11789e-006 2.26057e-006 2.37296e-006 1.1472 -3.4929 2.6336 -8.82781e-032 -3.18055e-015 -1.59028e-015 0.8229 -2.3 1.6571 -0 -4.77083e-015 -0 -9.412 3.9771 -0.7758 -32.3597 -52.9423 -7.1837 -0.7531 -40.938 0 179.767 27.7279 174.154 -1.77636e-015 -40.1986 3.55271e-015 2.55264 51.1577 -5.19739 -1.77636e-015 -4.4182 9.239 -3.81598e-006 7.73503e-008 -1.50145e-006 9.4119 3.9773 -0.7758 32.3227 -52.9534 7.15284 0.7532 -40.9383 1.77636e-015 -179.748 27.719 -174.154 1.77636e-015 -40.1986 3.55271e-015 -2.55283 51.1566 5.19761 0 -4.4182 9.239 -8.00663e-006 2.04695e-006 1.67828e-006 
3.9732e-005 2.77084 -13.6723 1.05729e-006 3.99972 6.07582e-007 -6.77626e-021 8.7983 -4.7612 -3.07395 17.8625 3.55195 1.11022e-016 8.0291 0.4195 -7.99923 35.4442 8.85753 0 9.9351 -2.2114 -7.99914 35.4439 8.85743 -8.88179e-016 22.3885 -0.4656 -0.00444097 -46.0052 14.7011 -0.0001 12.643 3.4389 -0.000708448 16.8647 -31.0028 2.2603 21.606 7.4023 2.62535 -4.80045 -22.4008 13.5163 -1.1332 -5.0146 -176.28 -34.836 53.7476 -0.0995 -28.05 -0.2431 -1.10757 -6.05823 -0.253106 0.0679 -23.3996 -0.1402 -0.375287 -1.47832 50.3096 0.7932 -9.069 2.5189 -3.18055e-015 -3.18055e-015 3.97569e-015 -0.8272 -3.3923 0.5977 -4.69323e-006 -7.75546e-007 1.08612e-006 -0.5649 -2.3158 0.4082 -6.62086e-031 7.95139e-015 4.77083e-015 0.9159 -9.2044 0.2193 -3.18055e-015 -3.18055e-015 3.97569e-015 0.0117 -4.1944 -0.0248 -0.0127878 0.00231718 8.17526e-005 0.0071 -2.3249 -0.0142 0 1.43125e-014 -0 0.6113 -8.7231 -2.0637 -3.18055e-015 -3.18055e-015 3.97569e-015 -0.1927 -3.8059 -0.2383 -0.0160666 0.00300751 0.000863083 -0.1091 -2.1688 -0.1362 -1.89492e-006 -6.15469e-007 1.8721e-006 -0.6151 -8.0947 -3.5641 -3.18055e-015 -3.18055e-015 3.97569e-015 -0.4882 -2.341 -0.6462 -0.0126203 0.00313289 0.00283775 -0.3575 -1.7167 -0.4742 -6.92416e-006 1.86957e-006 5.87867e-006 -1.42 -1.8761 1.4223 -3.18055e-015 -3.18055e-015 3.97569e-015 -1.1471 -3.4929 2.6334 -4.69323e-006 -7.75546e-007 1.08612e-006 -0.823 -2.3 1.6571 -6.62086e-031 7.95139e-015 4.77083e-015 -2.2603 21.606 7.4023 -0.878365 -9.837 6.88567 -13.5187 -1.1334 -5.0155 -171.954 -54.6442 -146.948 0.0994 -28.0499 -0.2431 6.78652 -14.8035 21.9701 -0.0679 -23.3996 -0.1402 -10.7513 -6.81151 29.1975 -0.7932 -9.0691 2.5189 3.18055e-015 1.11319e-014 3.18055e-015 0.8272 -3.3923 0.5977 6.36111e-015 4.77083e-015 -1.59028e-015 0.565 -2.3158 0.4082 1.32417e-030 7.95139e-015 -9.54166e-015 -0.916 -9.2044 0.2193 3.18055e-015 1.11319e-014 3.18055e-015 -0.0117 -4.1944 -0.0248 0.0129703 0.00231979 -8.82769e-005 -0.0071 -2.3249 -0.0142 -2.20695e-031 1.59028e-015 7.95139e-015 -0.6113 -8.7231 -2.0637 3.18055e-015 1.11319e-014 3.18055e-015 0.1927 -3.8059 -0.2383 0.016342 0.00303231 -0.000875514 0.1091 -2.1688 -0.1362 -5.29669e-031 -3.18055e-015 -9.54166e-015 0.6151 -8.0947 -3.564 3.18055e-015 1.11319e-014 3.18055e-015 0.4882 -2.341 -0.6462 0.0145887 0.00368235 -0.00326395 0.3574 -1.7166 -0.4742 -6.36111e-015 -6.36111e-015 -1.59028e-015 1.4199 -1.8761 1.4221 3.18055e-015 1.11319e-014 3.18055e-015 1.1472 -3.4929 2.6336 6.36111e-015 4.77083e-015 -1.59028e-015 0.8229 -2.3 1.6571 1.32417e-030 7.95139e-015 -9.54166e-015 -9.412 3.9771 -0.7758 -32.361 -52.9419 -7.18475 -0.7531 -40.938 0 179.768 27.7283 174.154 3.55271e-015 -40.1986 0 2.55259 51.1578 -5.19735 0 -4.4182 9.239 -5.30811e-006 4.47068e-007 8.74144e-007 9.4119 3.9773 -0.7758 32.3224 -52.9535 7.15262 0.7532 -40.9383 -1.77636e-015 -179.748 27.7189 -174.154 -1.77636e-015 -40.1986 -3.55271e-015 -2.55284 51.1566 5.19764 5.32907e-015 -4.4182 9.239 2.42093e-006 -3.82195e-006 -5.9284e-006 
